<svg width="22" height="23" viewBox="0 0 22 23" fill="none" xmlns="http://www.w3.org/2000/svg">
<path d="M11.0004 6.09204C8.11853 6.09204 5.79275 8.50728 5.79275 11.5C5.79275 14.4926 8.11853 16.9079 11.0004 16.9079C13.8822 16.9079 16.208 14.4926 16.208 11.5C16.208 8.50728 13.8822 6.09204 11.0004 6.09204ZM11.0004 15.0147C9.13669 15.0147 7.61579 13.4353 7.61579 11.5C7.61579 9.5646 9.13669 7.98521 11.0004 7.98521C12.864 7.98521 14.3849 9.5646 14.3849 11.5C14.3849 13.4353 12.864 15.0147 11.0004 15.0147ZM16.4213 4.61021C15.7484 4.61021 15.2051 5.17447 15.2051 5.8732C15.2051 6.57193 15.7484 7.13618 16.4213 7.13618C17.0941 7.13618 17.6375 6.57456 17.6375 5.8732C17.6377 5.70728 17.6064 5.54295 17.5453 5.38963C17.4843 5.2363 17.3947 5.09698 17.2817 4.97966C17.1687 4.86234 17.0346 4.76932 16.8869 4.70592C16.7393 4.64253 16.581 4.61 16.4213 4.61021ZM21.1515 11.5C21.1515 10.0445 21.1642 8.6022 21.0855 7.14937C21.0068 5.46187 20.6361 3.96421 19.4478 2.73023C18.257 1.49361 16.8174 1.11128 15.1924 1.02954C13.7908 0.947806 12.4019 0.960989 11.0029 0.960989C9.60134 0.960989 8.21247 0.947806 6.81345 1.02954C5.18845 1.11128 3.74626 1.49624 2.55798 2.73023C1.36716 3.96685 0.998997 5.46187 0.920286 7.14937C0.841576 8.60484 0.854271 10.0471 0.854271 11.5C0.854271 12.9528 0.841576 14.3977 0.920286 15.8505C0.998997 17.538 1.3697 19.0357 2.55798 20.2697C3.7488 21.5063 5.18845 21.8886 6.81345 21.9704C8.21501 22.0521 9.60388 22.0389 11.0029 22.0389C12.4045 22.0389 13.7933 22.0521 15.1924 21.9704C16.8174 21.8886 18.2595 21.5037 19.4478 20.2697C20.6386 19.0331 21.0068 17.538 21.0855 15.8505C21.1668 14.3977 21.1515 12.9554 21.1515 11.5ZM18.9172 17.7173C18.7318 18.1972 18.5084 18.5558 18.1504 18.925C17.7924 19.2967 17.4496 19.5288 16.9875 19.7212C15.6519 20.2723 12.4806 20.1484 11.0004 20.1484C9.52009 20.1484 6.34626 20.2723 5.01072 19.7239C4.54861 19.5314 4.20329 19.2994 3.84783 18.9276C3.48982 18.5558 3.26638 18.1999 3.08103 17.72C2.5529 16.3304 2.67224 13.0372 2.67224 11.5C2.67224 9.96275 2.5529 6.66685 3.08103 5.27993C3.26638 4.80005 3.48982 4.44146 3.84783 4.07232C4.20583 3.70318 4.54861 3.46851 5.01072 3.27603C6.34626 2.72759 9.52009 2.85152 11.0004 2.85152C12.4806 2.85152 15.6545 2.72759 16.99 3.27603C17.4521 3.46851 17.7974 3.70054 18.1529 4.07232C18.5109 4.44409 18.7343 4.80005 18.9197 5.27993C19.4478 6.66685 19.3285 9.96275 19.3285 11.5C19.3285 13.0372 19.4478 16.3304 18.9172 17.7173Z" fill="#E77975"/>
</svg>
