<svg width="22" height="22" viewBox="0 0 22 22" fill="none" xmlns="http://www.w3.org/2000/svg">
<path d="M9.16683 17.3553H12.8335C12.9551 17.3553 13.0716 17.307 13.1576 17.221C13.2435 17.1351 13.2918 17.0185 13.2918 16.8969C13.2918 16.7754 13.2435 16.6588 13.1576 16.5728C13.0716 16.4869 12.9551 16.4386 12.8335 16.4386H9.16683C9.04527 16.4386 8.92869 16.4869 8.84274 16.5728C8.75678 16.6588 8.7085 16.7754 8.7085 16.8969C8.7085 17.0185 8.75678 17.1351 8.84274 17.221C8.92869 17.307 9.04527 17.3553 9.16683 17.3553Z" fill="black"/>
<path d="M15.3332 20.1089H6.66702C6.09191 20.0746 5.55362 19.8146 5.16925 19.3854C4.78488 18.9562 4.58554 18.3926 4.6146 17.8173V4.18275C4.58554 3.60735 4.78488 3.04376 5.16925 2.61459C5.55362 2.18542 6.09191 1.92539 6.66702 1.89108H15.3332C15.9083 1.92539 16.4466 2.18542 16.831 2.61459C17.2153 3.04376 17.4147 3.60735 17.3856 4.18275V17.8173C17.4147 18.3926 17.2153 18.9562 16.831 19.3854C16.4466 19.8146 15.9083 20.0746 15.3332 20.1089ZM6.66702 2.80775C6.33545 2.84277 6.03081 3.00636 5.81848 3.26342C5.60615 3.52049 5.50304 3.85053 5.53127 4.18275V17.8173C5.50304 18.1495 5.60615 18.4795 5.81848 18.7366C6.03081 18.9936 6.33545 19.1572 6.66702 19.1923H15.3332C15.6648 19.1572 15.9694 18.9936 16.1817 18.7366C16.3941 18.4795 16.4972 18.1495 16.4689 17.8173V4.18275C16.4972 3.85053 16.3941 3.52049 16.1817 3.26342C15.9694 3.00636 15.6648 2.84277 15.3332 2.80775H6.66702Z" fill="black"/>
</svg>